/* XPM */
static char *_506505585818[] = {
/* columns rows colors chars-per-pixel */
"32 32 169 2 ",
"   c #1C1A1A",
".  c #1C1B17",
"X  c #1D221B",
"o  c #222017",
"O  c #21211C",
"+  c #242B18",
"@  c #173727",
"#  c #262522",
"$  c #2D2A24",
"%  c #2C2E29",
"&  c #332F28",
"*  c #2E322B",
"=  c #3C3525",
"-  c #34332A",
";  c #39352F",
":  c #363124",
">  c #393633",
",  c #463A27",
"<  c #433C34",
"1  c #483F37",
"2  c #443D38",
"3  c #4A3E39",
"4  c #4A402C",
"5  c #474137",
"6  c #4C4334",
"7  c #4C443A",
"8  c #504639",
"9  c #554B3E",
"0  c #5B4E3D",
"q  c #584D37",
"w  c #5D503F",
"e  c #68583B",
"r  c #4B6D3A",
"t  c #387255",
"y  c #397760",
"u  c #544C41",
"i  c #5C5241",
"p  c #565348",
"a  c #635644",
"s  c #665943",
"d  c #6E5F47",
"f  c #695D4E",
"g  c #4F684D",
"h  c #446D42",
"j  c #47764C",
"k  c #6F6045",
"l  c #72634D",
"z  c #72704A",
"x  c #646B52",
"c  c #7B6A54",
"v  c #786B58",
"b  c #806A47",
"n  c #846E4E",
"m  c #8A724D",
"M  c #89785F",
"N  c #877354",
"B  c #927E61",
"V  c #12917D",
"C  c #288968",
"Z  c #388562",
"A  c #229369",
"S  c #218D79",
"D  c #3E8870",
"F  c #348D7F",
"G  c #2B9474",
"H  c #3B9A77",
"J  c #508546",
"K  c #4E9142",
"L  c #428257",
"P  c #538858",
"I  c #64934E",
"U  c #6C9355",
"Y  c #6C9E5B",
"T  c #739250",
"R  c #408067",
"E  c #48886A",
"W  c #58856E",
"Q  c #47986C",
"!  c #5C9863",
"~  c #458B79",
"^  c #548F7C",
"/  c #4A957B",
"(  c #4C9374",
")  c #569A71",
"_  c #629D7A",
"`  c #44A268",
"'  c #41A97E",
"]  c #63A07F",
"[  c #93AC55",
"{  c #8B826F",
"}  c #97866F",
"|  c #968976",
" . c #A58E6B",
".. c #B09D7B",
"X. c #0D8387",
"o. c #1A8F8B",
"O. c #16898B",
"+. c #0D9188",
"@. c #1A918D",
"#. c #0F8B95",
"$. c #129492",
"%. c #179599",
"&. c #199599",
"*. c #248C84",
"=. c #3A8F86",
"-. c #379187",
";. c #3D978B",
":. c #218F94",
">. c #209791",
",. c #279B98",
"<. c #399C94",
"1. c #17A19C",
"2. c #3BA684",
"3. c #3BA598",
"4. c #1599A5",
"5. c #1C9AA1",
"6. c #1B9DAC",
"7. c #289FA6",
"8. c #219EAA",
"9. c #1DA5A9",
"0. c #1CAAA4",
"q. c #1BB1A3",
"w. c #1BABBA",
"e. c #27A3A7",
"r. c #38B6A6",
"t. c #21AFB6",
"y. c #2DACB3",
"u. c #2CACBB",
"i. c #27B7BC",
"p. c #29BAB7",
"a. c #3CB3B3",
"s. c #45998B",
"d. c #4A9987",
"f. c #479690",
"g. c #419892",
"h. c #57A787",
"j. c #5EA681",
"k. c #48AB9A",
"l. c #5CA795",
"z. c #64A384",
"x. c #60A190",
"c. c #4FB8AE",
"v. c #48BDBA",
"b. c #6BBFA0",
"n. c #62BAA0",
"m. c #7EC29C",
"M. c #78C8AF",
"N. c #78C1AB",
"B. c #2BB3C5",
"V. c #34B3C2",
"C. c #38B3C3",
"Z. c #3CC4C3",
"A. c #2DC1D0",
"S. c #3AC9D6",
"D. c #45C1D1",
"F. c #56CBDC",
"G. c #4CD2DE",
"H. c #53D2D8",
"J. c #70D9DF",
"K. c #55DEED",
"L. c #77D7E6",
"P. c #77E5F1",
"I. c #A29682",
"U. c #B2A58D",
"Y. c #BDB097",
"T. c #C4B89B",
"R. c #89C49D",
"E. c #8DE6F3",
"W. c None",
/* pixels */
"W.W.W.W.W.W.W.W.W.W.W.W.W.W.W.W.W.W.W.W.W.W.W.W.W.W.W.W.W.W.W.W.",
"W.W.W.W.W.W.W.W.W.W.W.W.W.W.W.W.W.W.W.W.W.W.W.W.W.W.W.W.W.W.W.W.",
"W.W.W.W.W.W.W.W.W.W.W.W.W.W.W.W.W.W.W.W.W.W.W.W.W.W.W.W.W.W.W.W.",
"W.W.W.W.W.W.W.W.W.W.W.W.W.W.W.W.W.W.W.W.W.W.W.W.W.W.W.W.W.W.W.W.",
"W.W.W.W.W.W.W.W.W.W.W.U ) d.<.<.<.<.d.] T W.W.W.W.W.W.W.W.W.W.W.",
"W.W.W.W.W.W.W.W.W.I / -.;.l.W.W.W.W.x.f.=./ U W.W.W.W.W.W.W.W.W.",
"W.W.W.W.W.W.W.W.Q =.s.W.W.W.W.W.W.W.W.W.W.d.=.] W.W.W.W.W.W.W.W.",
"W.W.W.W.W.W.W.H *.W.W.z W.W.W.W.W.W.W.W.W.W.W.s.n.W.W.W.W.W.W.W.",
"W.W.W.W.W.W.G *.^ x < 3 > W.W.W.W.W.W.W.W.W.W.W.s.M.W.W.W.W.W.W.",
"W.W.W.W.W.A o.s.} < 5 u ; W.W.W.W.W.W.W.W.W.W.W.W.l.R.W.W.W.W.W.",
"W.W.W.W.W.o.,.W.+ X X # - . W.W.W.W.W.W.W.W.W.W.W.] N.[ W.W.W.W.",
"W.W.W.W.V O.W.W.W.W.W.# - O W.W.W.W.W.W.W.W.W.W.W.W.z.R.W.W.W.W.",
"W.W.W.W.O.%.W.W.W.W.3 v f p 1 f 8 % W.W.W.W.W.W.W.W.) N.W.W.W.W.",
"W.W.W.W.X.e.W.W.W.W.{ Y.I.u 6 c s 0 a , W.W.W.W.W.W.W.h.Y W.W.W.",
"W.W.W.+.X.W.W.W.W.W.p U.| | 5 w c l u i a < W.W.W.W.W.( ! W.W.W.",
"W.W.W.$.#.W.W.W.W.W.W.  i T.} = a M c a 6 5 > W.W.W.W.E P W.W.W.",
"W.W.W.1.4.W.W.W.W.W.W.W.- .. .m 6 7 c B l w 8 < W.W.W.R j W.W.W.",
"W.W.W.q.w.W.W.W.W.W.W.W.W.q N m b , : l N a 0 8 = W.W.y h W.W.W.",
"W.W.W.W.A.u.W.W.W.W.W.W.W.W.o , e 4 = = d l 9 a 4 W.W.t r W.W.W.",
"W.W.W.W.G.B.W.W.W.W.W.W.W.W.W.W.W.o k ; & s 0 8 6 W.~ t W.W.W.W.",
"W.W.W.W.H.H.W.W.W.W.W.W.W.W.W.W.W.O s $ W.  5 ; , W Z L W.W.W.W.",
"W.W.W.W.D.E.C.W.W.W.W.W.W.W.W.W.W.$ < W.W.W.W.+ g E Z J W.W.W.W.",
"W.W.W.W.W.J.L.V.W.W.W.W.W.W.W.W.& 5 2 W.W.W.W.W.W.Z H W.W.W.W.W.",
"W.W.W.W.W.W.P.D.C.W.W.W.W.W.W.# % 3 - W.W.W.W.W.C H K W.W.W.W.W.",
"W.W.W.W.W.W.Z.K.V.u.W.W.W.W.W.W.$ * @ W.W.W.3.A s.` W.W.W.W.W.W.",
"W.W.W.W.W.W.W.i.S.y.6.W.W.W.W.W.W.W.W.W.W.@.S k.' W.W.W.W.W.W.W.",
"W.W.W.W.W.W.W.W.9.y.7.5.4.8.W.W.W.y.e.%.@.3.c.2.W.W.W.W.W.W.W.W.",
"W.W.W.W.W.W.W.W.W.W.&.O.:.&.&.&.&.&.y.a.v.r.W.W.W.W.W.W.W.W.W.W.",
"W.W.W.W.W.W.W.W.W.W.W.W.+.%.9.i.i.p.p.q.W.W.W.W.W.W.W.W.W.W.W.W.",
"W.W.W.W.W.W.W.W.W.W.W.W.W.W.W.W.W.W.W.W.W.W.W.W.W.W.W.W.W.W.W.W.",
"W.W.W.W.W.W.W.W.W.W.W.W.W.W.W.W.W.W.W.W.W.W.W.W.W.W.W.W.W.W.W.W.",
"W.W.W.W.W.W.W.W.W.W.W.W.W.W.W.W.W.W.W.W.W.W.W.W.W.W.W.W.W.W.W.W."
};
