/* XPM */
static char *_506505597386[] = {
/* columns rows colors chars-per-pixel */
"80 80 247 2 ",
"   c #060C0B",
".  c #15160A",
"X  c #050E10",
"o  c #0C1414",
"O  c #1C1C16",
"+  c #1C1D1B",
"@  c #131717",
"#  c #0D100D",
"$  c #211F17",
"%  c #1C211D",
"&  c #0B221D",
"*  c #24231B",
"=  c #29261D",
"-  c #2A271A",
";  c #38321E",
":  c #382F1D",
">  c #1E2624",
",  c #222522",
"<  c #2C2A24",
"1  c #292B27",
"2  c #332D23",
"3  c #332E2A",
"4  c #2A332C",
"5  c #34322C",
"6  c #3B352C",
"7  c #3D392E",
"8  c #383224",
"9  c #3A3631",
"0  c #3E3A32",
"q  c #3F393A",
"w  c #283831",
"e  c #463B27",
"r  c #423D34",
"t  c #493F34",
"y  c #453F39",
"u  c #364434",
"i  c #464136",
"p  c #4C4334",
"a  c #4B443A",
"s  c #4E493D",
"d  c #474339",
"f  c #554B3C",
"g  c #5A4E3C",
"h  c #544836",
"j  c #5C513E",
"k  c #575334",
"l  c #54442B",
"z  c #62543D",
"x  c #69573B",
"c  c #624D30",
"v  c #6B6738",
"b  c #2D5942",
"n  c #244F41",
"m  c #196E51",
"M  c #13705B",
"N  c #35694B",
"B  c #3A6D51",
"V  c #377859",
"C  c #2C7252",
"Z  c #0D7677",
"A  c #167C7A",
"S  c #0F726F",
"D  c #2C7A67",
"F  c #3A7D69",
"G  c #257C7D",
"H  c #2A7B78",
"J  c #327F7B",
"K  c #025A5D",
"L  c #4C4A42",
"P  c #544D43",
"I  c #5A4E42",
"U  c #5C5243",
"Y  c #5A5448",
"T  c #635543",
"R  c #655A45",
"E  c #6B5B46",
"W  c #645A4C",
"Q  c #6A5D4B",
"!  c #655647",
"~  c #685E50",
"^  c #725E40",
"/  c #427B59",
"(  c #4D724A",
")  c #6F614C",
"_  c #746244",
"`  c #73634D",
"'  c #7A6749",
"]  c #6B6555",
"[  c #776854",
"{  c #7D745D",
"}  c #797262",
"|  c #457F62",
" . c #826B48",
".. c #826E55",
"X. c #847154",
"o. c #837159",
"O. c #8B7759",
"+. c #967D5A",
"@. c #88714C",
"#. c #897B65",
"$. c #937F61",
"%. c #39855B",
"&. c #399559",
"*. c #17867D",
"=. c #19836B",
"-. c #2B8668",
";. c #388467",
":. c #38976A",
">. c #268874",
",. c #378777",
"<. c #299877",
"1. c #3A9A7B",
"2. c #2F956D",
"3. c #32A27A",
"4. c #49874B",
"5. c #57854A",
"6. c #4B835A",
"7. c #478757",
"8. c #538555",
"9. c #5A8C56",
"0. c #4B9454",
"q. c #669557",
"w. c #6A924A",
"e. c #478866",
"r. c #598866",
"t. c #589567",
"y. c #489A77",
"u. c #4D9374",
"i. c #649469",
"p. c #51A77C",
"a. c #6BA36B",
"s. c #76A15E",
"d. c #988465",
"f. c #958974",
"g. c #9D917B",
"h. c #8D836E",
"j. c #A59578",
"k. c #AC9774",
"l. c #9F885F",
"z. c #0D7D87",
"x. c #267E86",
"c. c #1D8384",
"v. c #13838B",
"b. c #168A87",
"n. c #1B9488",
"m. c #078798",
"M. c #138694",
"N. c #0C9698",
"B. c #139D9D",
"V. c #179798",
"C. c #0E8688",
"Z. c #24828A",
"A. c #26878A",
"S. c #358789",
"D. c #259588",
"F. c #298992",
"G. c #338D94",
"H. c #289699",
"J. c #389494",
"K. c #39978B",
"L. c #14A29D",
"P. c #12A395",
"I. c #15A491",
"U. c #39A598",
"Y. c #2FA691",
"T. c #0C8BA2",
"R. c #0D8AA6",
"E. c #118EA6",
"W. c #0E93A4",
"Q. c #1B9CA3",
"!. c #1698A8",
"~. c #1B9DB5",
"^. c #249DA4",
"/. c #359FA6",
"(. c #19A4A7",
"). c #19A9B8",
"_. c #19B5BE",
"`. c #23ABAD",
"'. c #26A5AA",
"]. c #35A9A9",
"[. c #26A9B7",
"{. c #29B2B7",
"}. c #38B8BD",
"|. c #32ADAD",
" X c #459A96",
".X c #489787",
"XX c #5BA786",
"oX c #43AA96",
"OX c #56A896",
"+X c #47B499",
"@X c #5EB697",
"#X c #4BA98B",
"$X c #62AC96",
"%X c #67B499",
"&X c #6EAF87",
"*X c #4BB8A9",
"=X c #55B9A7",
"-X c #44B2B2",
";X c #63B8A5",
":X c #78BCA6",
">X c #5BCBB3",
",X c #54C4A8",
"<X c #6EC9B6",
"1X c #27BAC4",
"2X c #3ABBC5",
"3X c #28ADC2",
"4X c #48BBC3",
"5X c #1DC4D3",
"6X c #28C2CD",
"7X c #35C7D2",
"8X c #39CBD3",
"9X c #2CD8E9",
"0X c #3FE1F3",
"qX c #44C3CA",
"wX c #49CDD6",
"eX c #45D2D9",
"rX c #57CFCF",
"tX c #64D5D9",
"yX c #6DD5CD",
"uX c #58DBE8",
"iX c #47DDE9",
"pX c #77DAE5",
"aX c #58E5F4",
"sX c #78EDFB",
"dX c #6AE8F6",
"fX c #7FE0DF",
"gX c #A99D86",
"hX c #ADA18A",
"jX c #B5A88D",
"kX c #B7AA92",
"lX c #BFB29A",
"zX c #93A88B",
"xX c #C4B69B",
"cX c #C8AE97",
"vX c #CABEA7",
"bX c #81CFB3",
"nX c #CBC0A9",
"mX c #8AD6C7",
"MX c #90DACF",
"NX c #90E7DC",
"BX c #88E5EA",
"VX c #89F2FF",
"CX c #90EFFA",
"ZX c #A7F4FC",
"AX c #A7F1F3",
"SX c #A0DED3",
"DX c None",
/* pixels */
"DXDXDXDXDXDXDXDXDXDXDXDXDXDXDXDXDXDXDXDXDXDXDXDXDXDXDXDXDXDXDXDXDXDXDXDXDXDXDXDXDXDXDXDXDXDXDXDXDXDXDXDXDXDXDXDXDXDXDXDXDXDXDXDXDXDXDXDXDXDXDXDXDXDXDXDXDXDXDXDX",
"DXDXDXDXDXDXDXDXDXDXDXDXDXDXDXDXDXDXDXDXDXDXDXDXDXDXDXDXDXDXDXDXDXDXDXDXDXDXDXDXDXDXDXDXDXDXDXDXDXDXDXDXDXDXDXDXDXDXDXDXDXDXDXDXDXDXDXDXDXDXDXDXDXDXDXDXDXDXDXDX",
"DXDXDXDXDXDXDXDXDXDXDXDXDXDXDXDXDXDXDXDXDXDXDXDXDXDXDXDXDXDXDXDXDXDXDXDXDXDXDXDXDXDXDXDXDXDXDXDXDXDXDXDXDXDXDXDXDXDXDXDXDXDXDXDXDXDXDXDXDXDXDXDXDXDXDXDXDXDXDXDX",
"DXDXDXDXDXDXDXDXDXDXDXDXDXDXDXDXDXDXDXDXDXDXDXDXDXDXDXDXDXDXDXDXDXDXDXDXDXDXDXDXDXDXDXDXDXDXDXDXDXDXDXDXDXDXDXDXDXDXDXDXDXDXDXDXDXDXDXDXDXDXDXDXDXDXDXDXDXDXDXDX",
"DXDXDXDXDXDXDXDXDXDXDXDXDXDXDXDXDXDXDXDXDXDXDXDXDXDXDXDXDXDXDXDXDXDXDXDXDXDXDXDXDXDXDXDXDXDXDXDXDXDXDXDXDXDXDXDXDXDXDXDXDXDXDXDXDXDXDXDXDXDXDXDXDXDXDXDXDXDXDXDX",
"DXDXDXDXDXDXDXDXDXDXDXDXDXDXDXDXDXDXDXDXDXDXDXDXDXDXDXDXDXDXDXDXDXDXDXDXDXDXDXDXDXDXDXDXDXDXDXDXDXDXDXDXDXDXDXDXDXDXDXDXDXDXDXDXDXDXDXDXDXDXDXDXDXDXDXDXDXDXDXDX",
"DXDXDXDXDXDXDXDXDXDXDXDXDXDXDXDXDXDXDXDXDXDXDXDXDXDXDXDXDXDXDXDXDXDXDXDXDXDXDXDXDXDXDXDXDXDXDXDXDXDXDXDXDXDXDXDXDXDXDXDXDXDXDXDXDXDXDXDXDXDXDXDXDXDXDXDXDXDXDXDX",
"DXDXDXDXDXDXDXDXDXDXDXDXDXDXDXDXDXDXDXDXDXDXDXDXDXDXDXDXDXDXDXDXDXDXDXDXDXDXDXDXDXDXDXDXDXDXDXDXDXDXDXDXDXDXDXDXDXDXDXDXDXDXDXDXDXDXDXDXDXDXDXDXDXDXDXDXDXDXDXDX",
"DXDXDXDXDXDXDXDXDXDXDXDXDXDXDXDXDXDXDXDXDXDXDXDXDXDXDXDXDXDXDXDXDXDXDXDXDXDXDXDXDXDXDXDXDXDXDXDXDXDXDXDXDXDXDXDXDXDXDXDXDXDXDXDXDXDXDXDXDXDXDXDXDXDXDXDXDXDXDXDX",
"DXDXDXDXDXDXDXDXDXDXDXDXDXDXDXDXDXDXDXDXDXDXDXDXDXDXDXDXDXDXDXDXDXDXDXDXDXDXt.t.t.t.DXDXDXDXDXDXDXDXDXDXDXDXDXDXDXDXDXDXDXDXDXDXDXDXDXDXDXDXDXDXDXDXDXDXDXDXDXDX",
"DXDXDXDXDXDXDXDXDXDXDXDXDXDXDXDXDXDXDXDXDXDXDXDXDXDXDXDXDXDXDXDXDXr.p.XXOX=X*X*X*X*X,X=X=X%X$Xi.9.DXDXDXDXDXDXDXDXDXDXDXDXDXDXDXDXDXDXDXDXDXDXDXDXDXDXDXDXDXDXDX",
"DXDXDXDXDXDXDXDXDXDXDXDXDXDXDXDXDXDXDXDXDXDXDXDXDXDXDXDXt.XX%X@X=X=X*XoXJ.,.;.,.,.,.,.K..X#X@X:XbX:XXXq.DXDXDXDXDXDXDXDXDXDXDXDXDXDXDXDXDXDXDXDXDXDXDXDXDXDXDXDX",
"DXDXDXDXDXDXDXDXDXDXDXDXDXDXDXDXDXDXDXDXDXDXDXDXDXDXt.%X;XOXy.,.,.G x.x.F.F.G.J.J.G.G.F.Z.G H H F u.$X;X$Xi.DXDXDXDXDXDXDXDXDXDXDXDXDXDXDXDXDXDXDXDXDXDXDXDXDXDX",
"DXDXDXDXDXDXDXDXDXDXDXDXDXDXDXDXDXDXDXDXDXDXDXDXDX%X$Xy.;.;.H x.F.J.DXDXDXDXDXDXDXDXDXDXDXDX XJ.F.G D F u.OX$Xt.DXDXDXDXDXDXDXDXDXDXDXDXDXDXDXDXDXDXDXDXDXDXDXDX",
"DXDXDXDXDXDXDXDXDXDXDXDXDXDXDXDXDXDXDXDXDXDXDXXX$Xu.F ;.x.F. XDXDXDXDXDXDXDXDXDXDXDXDXDXDXDXDXDXDXOXG.x.H V e.OX&Xi.DXDXDXDXDXDXDXDXDXDXDXDXDXDXDXDXDXDXDXDXDXDX",
"DXDXDXDXDXDXDXDXDXDXDXDXDXDXDXDXDXDXDXDXDX0.=X.XV ;.G F.DXDXDXDXDXDXDXDXDXDXDXDXDXDXDXDXDXDXDXDXDXDXDXDXJ.Z.F / u.;XXXDXDXDXDXDXDXDXDXDXDXDXDXDXDXDXDXDXDXDXDXDX",
"DXDXDXDXDXDXDXDXDXDXDXDXDXDXDXDXDXDXDXDXy.*X;.%.,.c.DXDXDXDXDXDXDXDXDXDXDXDXDXDXDXDXDXDXDXDXDXDXDXDXDXDXDXDXG.J e.u.;X%Xq.DXDXDXDXDXDXDXDXDXDXDXDXDXDXDXDXDXDXDX",
"DXDXDXDXDXDXDXDXDXDXDXDXDXDXDXDXDXDXDX1.+XD -.A H.DXDXDXDXDXDXDXDXDXDXDXDXDXDXDXDXDXDXDXDXDXDXDXDXDXDXDXDXDXDX Xx.;.y.;X<Xq.DXDXDXDXDXDXDXDXDXDXDXDXDXDXDXDXDXDX",
"DXDXDXDXDXDXDXDXDXDXDXDXDXDXDXDXDXDX1.U.D ;.x.U.DXDXDXDXDXv DXDXDXDXDXDXDXDXDXDXDXDXDXDXDXDXDXDXDXDXDXDXDXDXDXDXDXF.F u.>XmXa.DXDXDXDXDXDXDXDXDXDXDXDXDXDXDXDXDX",
"DXDXDXDXDXDXDXDXDXDXDXDXDXDXDXDXDX1.H.-.>.v.DXDXDXDXs s P P q r DXDXDXDXDXDXDXDXDXDXDXDXDXDXDXDXDXDXDXDXDXDXDXDXDXDXG.F y.>XMXi.DXDXDXDXDXDXDXDXDXDXDXDXDXDXDXDX",
"DXDXDXDXDXDXDXDXDXDXDXDXDXDXDXDX1.H.>.-.v.DXDXDX( a W ] i 0 q i - DXDXDXDXDXDXDXDXDXDXDXDXDXDXDXDXDXDXDXDXDXDXDXDXDXDXJ.F p.yXSXw.DXDXDXDXDXDXDXDXDXDXDXDXDXDXDX",
"DXDXDXDXDXDXDXDXDXDXDXDXDXDXDX<.D.>.>.z.DXr.] ) i 0 3 r i L i f < DXDXDXDXDXDXDXDXDXDXDXDXDXDXDXDXDXDXDXDXDXDXDXDXDXDXDXK.| p.NXmXw.DXDXDXDXDXDXDXDXDXDXDXDXDXDX",
"DXDXDXDXDXDXDXDXDXDXDXDXDXDXDXD.D.>.v.K.{ O.Y Q s 0 i s Y d s 9 < DXDXDXDXDXDXDXDXDXDXDXDXDXDXDXDXDXDXDXDXDXDXDXDXDXDXDXDXG.8.@XAX<XDXDXDXDXDXDXDXDXDXDXDXDXDXDX",
"DXDXDXDXDXDXDXDXDXDXDXDXDXDXD.D.>.v.'.r.cXnXh.r * , i P d 5 9 3 @ DXDXDXDXDXDXDXDXDXDXDXDXDXDXDXDXDXDXDXDXDXDXDXDXDXDXDXDXDX,.9.<XAXa.DXDXDXDXDXDXDXDXDXDXDXDXDX",
"DXDXDXDXDXDXDXDXDXDXDXDXDXD.D.D.*.V.DXi.vXW , @ 7 Y Y W P r i r O DXDXDXDXDXDXDXDXDXDXDXDXDXDXDXDXDXDXDXDXDXDXDXDXDXDXDXDXDXOXe.s.NXMXq.DXDXDXDXDXDXDXDXDXDXDXDX",
"DXDXDXDXDXDXDXDXDXDXDXDXDXD.n.*.M.DXDX( r < 9 L Y p 2 6 r r Y 6 $ < DXDXDXDXDXDXDXDXDXDXDXDXDXDXDXDXDXDXDXDXDXDXDXDXDXDXDXDXDXJ.9.&XAX&XDXDXDXDXDXDXDXDXDXDXDXDX",
"DXDXDXDXDXDXDXDXDXDXDXDXD.b.D.v.^.DXDXDX  DXDXX X X X X # < 5 < + 3 3 DXDXDXDXDXDXDXDXDXDXDXDXDXDXDXDXDXDXDXDXDXDXDXDXDXDXDXDXDX,.w.MXNXq.DXDXDXDXDXDXDXDXDXDXDX",
"DXDXDXDXDXDXDXDXDXDXDXDXn.b.*.m.DXDXDXDXDXDXDXDXDXDXDXDX# $ 5 3 # $ < DXDXDXDXDXDXDXDXDXDXDXDXDXDXDXDXDXDXDXDXDXDXDXDXDXDXDXDXDXoX5.&XAX%XDXDXDXDXDXDXDXDXDXDXDX",
"DXDXDXDXDXDXDXDXDXDXDXn.b.b.v.^.DXDXDXDXDXDXDXDXDXDXDXDX, r r 5 * X @ DXDXDXDXDXDXDXDXDXDXDXDXDXDXDXDXDXDXDXDXDXDXDXDXDXDXDXDXDXDX,.w.SXyXq.DXDXDXDXDXDXDXDXDXDX",
"DXDXDXDXDXDXDXDXDXDXDXn.*.n.m.DXDXDXDXDXDXDXDXDXDXDXDXDXa p < 5 ~ a DXDXDXDX2 2 DXDXDXDXDXDXDXDXDXDXDXDXDXDXDXDXDXDXDXDXDXDXDXDXDXJ.w.zXNXp.DXDXDXDXDXDXDXDXDXDX",
"DXDXDXDXDXDXDXDXDXDXV.b.*.C.W.DXDXDXDXDXDXDXDXDXDXDXDXW T a 0 , $ ~ P 3 I ! O.Q E P y 1 DXDXDXDXDXDXDXDXDXDXDXDXDXDXDXDXDXDXDXDXDX%Xe.s.SX,XDXDXDXDXDXDXDXDXDXDX",
"DXDXDXDXDXDXDXDXDXDXV.A *.m.'.DXDXDXDXDXDXDXDXDXDXDX} g.] } } Y } P P r a ! W ..I r r 9 3 , DXDXDXDXDXDXDXDXDXDXDXDXDXDXDXDXDXDXDXDX,.w.bX<Xt.DXDXDXDXDXDXDXDXDX",
"DXDXDXDXDXDXDXDXDXDXV.S b.m.DXDXDXDXDXDXDXDXDXDXDX} #.h.f.hXgXgX#.] t 3 3 t ! ! P 6 5 r r t e DXDXDXDXDXDXDXDXDXDXDXDXDXDXDXDXDXDXDX X5.&XyXp.DXDXDXDXDXDXDXDXDX",
"DXDXDXDXDXDXDXDXDXV.v.S N.E.DXDXDXDXDXDXDXDXDXDXDX] gXhXgXkXhXf.] Y 9 ! E ` ! [ d.f t t ` $.....f DXDXDXDXDXDXDXDXDXDXDXDXDXDXDXDXDX X/ s.<X#XDXDXDXDXDXDXDXDXDX",
"DXDXDXDXDXDXDXDXDXL.z.S m.!.DXDXDXDXDXDXDXDXDXDXDXq hXlXkXhXf.#.} ] < e I ! ` $.#.E h E ! e t I ) T ` [ DXDXDXDXDXDXDXDXDXDXDXDXDXDXDXF s.@X+Xw.DXDXDXDXDXDXDXDX",
"DXDXDXDXDXDXDXDXDXQ.Z A T.'.DXDXDXDXDXDXDXDXDXDXDXw f.gXlXkXkXjXgX[ U $ 2 ` o.! g T T X.! I I t t p h Q { DXDXDXDXDXDXDXDXDXDXDXDXDXDXJ q.XX+X9.DXDXDXDXDXDXDXDX",
"DXDXDXDXDXDXDXDXDX(.S C.m.DXDXDXDXDXDXDXDXDXDXDXDX5 Y vXxXjXf.g.h.f.jX[ . 3 g U ) [ o.) I ` ] ) E E ' p 7 W P DXDXDXDXDXDXDXDXDXDXDXDXS.9.t.#Xt.DXDXDXDXDXDXDXDX",
"DXDXDXDXDXDXDXDXDXQ.Z b.T.DXDXDXDXDXDXDXDXDXDXDXDXDXDXL j [ ) ~ #.vXvXj.Q . 8 E ! ` h.O.Y 9 5 r t f g 5 9 y i 0 DXDXDXDXDXDXDXDXDXDXDXS.9.t.y.e.DXDXDXDXDXDXDXDX",
"DXDXDXDXDXDXDXDXDX^.Z N.T.DXDXDXDXDXDXDXDXDXDXDXDXDXDXDXX i h p f.kXxXjX$.z $ 2 E O.{ $.d.O.` I p r r y r i r r i 5 DXDXDXDXDXDXDXDXDXS.8.r.e.t.DXDXDXDXDXDXDXDX",
"DXDXDXDXDXDXDXDXDX^.b.W.T.DXDXDXDXDXDXDXDXDXDXDXDXDXDXDXDXDXO p g.kXnXcX$.' x - - I [ o.[ k.d.#.O.T g I r y p f i q q DXDXDXDXDXDXDXDXS.8.9./ e.DXDXDXDXDXDXDXDX",
"DXDXDXDXDXDXDXDXDX/.V.W.T.DXDXDXDXDXDXDXDXDXDXDXDXDXDXDXDXDXo R d.jXkXk.d.O.O.x t - f Q ) { +.O.$.k.O.E T f t i i d a 9 DXDXDXDXDXDXDXS.8.r.B 6.DXDXDXDXDXDXDXDX",
"DXDXDXDXDXDXDXDXDX'.!.(.T.DXDXDXDXDXDXDXDXDXDXDXDXDXDXDXDXDXDXq d.j.j.l.$.l.l.@._ l - 7 Y U ) O.o.O.$.E z T x h p 7 p a 3 DXDXDXDXDXDXS.6./ N 6.DXDXDXDXDXDXDXDX",
"DXDXDXDXDXDXDXDXDX'.).(.T.DXDXDXDXDXDXDXDXDXDXDXDXDXDXDXDXDXDX@ x d.l.@.d.l.+.@.' ' g - 2 g U E o...o...` E g g h h 7 s L ; DXDXDXDXDXx.8./ b 6.DXDXDXDXDXDXDXDX",
"DXDXDXDXDXDXDXDXDX|.{._.T.{.DXDXDXDXDXDXDXDXDXDXDXDXDXDXDXDXDXDX< _ @.@.@.@.@.'  ._ x e - 8 j j Q ..o...R R T z j p p r s 4 DXDXDXDXDXx.8.B b 6.DXDXDXDXDXDXDXDX",
"DXDXDXDXDXDXDXDXDX|.1X5XR.[.DXDXDXDXDXDXDXDXDXDXDXDXDXDXDXDXDXDXDX% k x x ' ' @. .v _ h e   O l ` [ o.O.` U U g T j p p s % DXDXDXDXDXH 8.B b 8.DXDXDXDXDXDXDXDX",
"DXDXDXDXDXDXDXDXDX{.2X9X!.).DXDXDXDXDXDXDXDXDXDXDXDXDXDXDXDXDXDXDXDXo 8 e l c x x @. .c : $ $ * t j R ' O.R j U g f z h T p . DXDXDX.XH / N b 5.DXDXDXDXDXDXDXDX",
"DXDXDXDXDXDXDXDXDX{.7X9X).E.DXDXDXDXDXDXDXDXDXDXDXDXDXDXDXDXDXDXDXDXDXDX$ : e l c  .x e : x l 8 $ 2 f E [ X.g s h T T z j Q - DXDXDXS.;.( N N 5.DXDXDXDXDXDXDXDX",
"DXDXDXDXDXDXDXDXDX{.4XaX6XR.DXDXDXDXDXDXDXDXDXDXDXDXDXDXDXDXDXDXDXDXDXDXDXDX. O - - < . -  .E p 8 O e x _ ..E P a p T s f f DXDXDXDXS.6.N N / DXDXDXDXDXDXDXDXDX",
"DXDXDXDXDXDXDXDXDXDX7XuXiXW.3XDXDXDXDXDXDXDXDXDXDXDXDXDXDXDXDXDXDXDXDXDXDXDXDXDXDXDX  # O _ ' T p O # 8 z E T U g f f Y p I DXDXDXDXG 4.B N 6.DXDXDXDXDXDXDXDXDX",
"DXDXDXDXDXDXDXDXDXDX4XuXsX[.~.DXDXDXDXDXDXDXDXDXDXDXDXDXDXDXDXDXDXDXDXDXDXDXDXDXDXDX. 8 * h [ U r % , , , h ` U k i i s 5 t k DXDXK.F ( V C 5.DXDXDXDXDXDXDXDXDX",
"DXDXDXDXDXDXDXDXDXDX{.uXVXwXR.7XDXDXDXDXDXDXDXDXDXDXDXDXDXDXDXDXDXDXDXDXDXDXDXDXDXDXDX< - l ' ! 7 X @ , + O j _ s i 7 = 8 e k DXDXx.8.N / %.DXDXDXDXDXDXDXDXDXDX",
"DXDXDXDXDXDXDXDXDXDXDXwXsXCX!.[.DXDXDXDXDXDXDXDXDXDXDXDXDXDXDXDXDXDXDXDXDXDXDXDXDXDXDXDX5 z  .` 2 DXDXDXX o @ p T 7 0 = e c e DX XD 4.V ;.8.DXDXDXDXDXDXDXDXDXDX",
"DXDXDXDXDXDXDXDXDXDXDX}.sXZXwXR.8XDXDXDXDXDXDXDXDXDXDXDXDXDXDXDXDXDXDXDXDXDXDXDXDXDXDXDXP , L f % DXDXDXDXDXDXDX, i i 0 e ; u DXA.4.N :.&.5.DXDXDXDXDXDXDXDXDXDX",
"DXDXDXDXDXDXDXDXDXDXDX{.pXZXAX~.~.DXDXDXDXDXDXDXDXDXDXDXDXDXDXDXDXDXDXDXDXDXDXDXDXDXDX5 P DXY + DXDXDXDXDXDXDXDXDXDX> 1 < DXDXK.-.4.V y.7.DXDXDXDXDXDXDXDXDXDXDX",
"DXDXDXDXDXDXDXDXDXDXDXDX4XZXZXtXT.2XDXDXDXDXDXDXDXDXDXDXDXDXDXDXDXDXDXDXDXDXDXDXDXDXDXr y , [ DXDXDXDXDXDXDXDXDXDXDXDXDXDXDXDXx.4.N 1.:.5.DXDXDXDXDXDXDXDXDXDXDX",
"DXDXDXDXDXDXDXDXDXDXDXDX{.BXZXZX2XE.DXDXDXDXDXDXDXDXDXDXDXDXDXDXDXDXDXDXDXDXDXDXDXDXDX~ q Y ~ DXDXDXDXDXDXDXDXDXDXDXDXDXDXDXA.%.%.%.+X7.DXDXDXDXDXDXDXDXDXDXDXDX",
"DXDXDXDXDXDXDXDXDXDXDXDXDX}.ZXCXCX!.~.DXDXDXDXDXDXDXDXDXDXDXDXDXDXDXDXDXDXDXDX@ L I a I 9 #.y DXDXDXDXDXDXDXDXDXDXDXDXDXDXJ.D 0.C +X:.4.DXDXDXDXDXDXDXDXDXDXDXDX",
"DXDXDXDXDXDXDXDXDXDXDXDXDX{.tXZXCXtXE.[.DXDXDXDXDXDXDXDXDXDXDXDXDXDXDXDXDXDXa I i s 0 % 9 } + DXDXDXDXDXDXDXDXDXDXDXDXDXU.D 0.C 1.U.0.DXDXDXDXDXDXDXDXDXDXDXDXDX",
"DXDXDXDXDXDXDXDXDXDXDXDXDXDX{.BXVXsXqXE.3XDXDXDXDXDXDXDXDXDXDXDXDXDXDXDXDX0 9 % DXDX1 @ P ! + DXDXDXDXDXDXDXDXDXDXDXDXoX=.&.%.-.,X:.DXDXDXDXDXDXDXDXDXDXDXDXDXDX",
"DXDXDXDXDXDXDXDXDXDXDXDXDXDXDX1XCXdXdX4XR.3XDXDXDXDXDXDXDXDXDXDXDXDXDXDXDXDXDXDX0 r a r I t + DXDXDXDXDXDXDXDXDXDXDXU.*.&.&.m ,X1.0.DXDXDXDXDXDXDXDXDXDXDXDXDXDX",
"DXDXDXDXDXDXDXDXDXDXDXDXDXDXDXDX7XsXaXuX}.T.~.DXDXDXDXDXDXDXDXDXDXDXDXDXDXDXDX> 4 , 0 W p i % DXDXDXDXDXDXDXDXDXDXY.*.&.&.m >XoX&.DXDXDXDXDXDXDXDXDXDXDXDXDXDXDX",
"DXDXDXDXDXDXDXDXDXDXDXDXDXDXDXDX`.7XaXuXrX}.E.E.DXDXDXDXDXDXDXDXDXDXDXDXDXDXDXDXDX5 5 5 DX> w DXDXDXDXDXDXDXDXDXH.*.:.-.m >X+X:.DXDXDXDXDXDXDXDXDXDXDXDXDXDXDXDX",
"DXDXDXDXDXDXDXDXDXDXDXDXDXDXDXDXDX[.7XiXuX4X2XE.R.).DXDXDXDXDXDXDXDXDXDXDXDXDXDX! 9 & DXDXDXw DXDXDXDXDXDXDX|.M.*.3.-.m yX=X:.DXDXDXDXDXDXDXDXDXDXDXDXDXDXDXDXDX",
"DXDXDXDXDXDXDXDXDXDXDXDXDXDXDXDXDXDX).6X9XeX-X}.`.T.E.[.DXDXDXDXDXDXDXDXDXDXDXw 1 DXDXDXDXDXn DXDXDXDXDXDXV.C.<.3.M >.yX=X<.DXDXDXDXDXDXDXDXDXDXDXDXDXDXDXDXDXDX",
"DXDXDXDXDXDXDXDXDXDXDXDXDXDXDXDXDXDXDX'._.5XwX-X/.{.W.m.E.).DXDXDXDXDXDXDXDXDXDXDXDXDXDXDXDXDXDXDXDX|.!.M.V.Y.=.M oXNX*X<.DXDXDXDXDXDXDXDXDXDXDXDXDXDXDXDXDXDXDX",
"DXDXDXDXDXDXDXDXDXDXDXDXDXDXDXDXDXDXDXDX'.{._.2X4X/.'.(.N.z.R.~.[.DXDXDXDXDXDXDXDXDXDXDXDXDXDX{.'.E.N.V.n.=.M <.yXNXY.<.DXDXDXDXDXDXDXDXDXDXDXDXDXDXDXDXDXDXDXDX",
"DXDXDXDXDXDXDXDXDXDXDXDXDXDXDXDXDXDXDXDXDX(.`.~.!.-X].F.'.(.N.m.m.m.E.!.'.[.[.DX{.{.[.`.(.!.W.N.V.V.*.=.S n.>XBX>XD.<.DXDXDXDXDXDXDXDXDXDXDXDXDXDXDXDXDXDXDXDXDX",
"DXDXDXDXDXDXDXDXDXDXDXDXDXDXDXDXDXDXDXDXDXDXDX(.!.z.H.2X/.F.V.(.(.B.N.m.m.m.m.m.m.m.T.W.W.B.N.b.A A n.U.rXNXyX^.I.DXDXDXDXDXDXDXDXDXDXDXDXDXDXDXDXDXDXDXDXDXDXDX",
"DXDXDXDXDXDXDXDXDXDXDXDXDXDXDXDXDXDXDXDXDXDXDXDXB.(.z.K x.]./.F.Z.M.V.B.L.(.L.L.L.V.n.C.*.*.<.H.|.qXrXfXyX].I.<.DXDXDXDXDXDXDXDXDXDXDXDXDXDXDXDXDXDXDXDXDXDXDXDX",
"DXDXDXDXDXDXDXDXDXDXDXDXDXDXDXDXDXDXDXDXDXDXDXDXDXDX(.Q.Z K S H.'.].J.F.c.>.Z.c.c.A.H.|.|.7XeXeXtXrX>X`.n.I.DXDXDXDXDXDXDXDXDXDXDXDXDXDXDXDXDXDXDXDXDXDXDXDXDXDX",
"DXDXDXDXDXDXDXDXDXDXDXDXDXDXDXDXDXDXDXDXDXDXDXDXDXDXDXDX(.Q.v.S S C.!.{.1X6X6X7X7X8X9X8X8XeXqX2X`.(.P.DXDXDXDXDXDXDXDXDXDXDXDXDXDXDXDXDXDXDXDXDXDXDXDXDXDXDXDXDX",
"DXDXDXDXDXDXDXDXDXDXDXDXDXDXDXDXDXDXDXDXDXDXDXDXDXDXDXDXDXDXDXW.Q.W.V.V.Q.(.)._._.1X{.{.`.L.L.P.DXDXDXDXDXDXDXDXDXDXDXDXDXDXDXDXDXDXDXDXDXDXDXDXDXDXDXDXDXDXDXDX",
"DXDXDXDXDXDXDXDXDXDXDXDXDXDXDXDXDXDXDXDXDXDXDXDXDXDXDXDXDXDXDXDXDXDXDXB.B.B.B.B.B.L.L.L.DXDXDXDXDXDXDXDXDXDXDXDXDXDXDXDXDXDXDXDXDXDXDXDXDXDXDXDXDXDXDXDXDXDXDXDX",
"DXDXDXDXDXDXDXDXDXDXDXDXDXDXDXDXDXDXDXDXDXDXDXDXDXDXDXDXDXDXDXDXDXDXDXDXDXDXDXDXDXDXDXDXDXDXDXDXDXDXDXDXDXDXDXDXDXDXDXDXDXDXDXDXDXDXDXDXDXDXDXDXDXDXDXDXDXDXDXDX",
"DXDXDXDXDXDXDXDXDXDXDXDXDXDXDXDXDXDXDXDXDXDXDXDXDXDXDXDXDXDXDXDXDXDXDXDXDXDXDXDXDXDXDXDXDXDXDXDXDXDXDXDXDXDXDXDXDXDXDXDXDXDXDXDXDXDXDXDXDXDXDXDXDXDXDXDXDXDXDXDX",
"DXDXDXDXDXDXDXDXDXDXDXDXDXDXDXDXDXDXDXDXDXDXDXDXDXDXDXDXDXDXDXDXDXDXDXDXDXDXDXDXDXDXDXDXDXDXDXDXDXDXDXDXDXDXDXDXDXDXDXDXDXDXDXDXDXDXDXDXDXDXDXDXDXDXDXDXDXDXDXDX",
"DXDXDXDXDXDXDXDXDXDXDXDXDXDXDXDXDXDXDXDXDXDXDXDXDXDXDXDXDXDXDXDXDXDXDXDXDXDXDXDXDXDXDXDXDXDXDXDXDXDXDXDXDXDXDXDXDXDXDXDXDXDXDXDXDXDXDXDXDXDXDXDXDXDXDXDXDXDXDXDX",
"DXDXDXDXDXDXDXDXDXDXDXDXDXDXDXDXDXDXDXDXDXDXDXDXDXDXDXDXDXDXDXDXDXDXDXDXDXDXDXDXDXDXDXDXDXDXDXDXDXDXDXDXDXDXDXDXDXDXDXDXDXDXDXDXDXDXDXDXDXDXDXDXDXDXDXDXDXDXDXDX",
"DXDXDXDXDXDXDXDXDXDXDXDXDXDXDXDXDXDXDXDXDXDXDXDXDXDXDXDXDXDXDXDXDXDXDXDXDXDXDXDXDXDXDXDXDXDXDXDXDXDXDXDXDXDXDXDXDXDXDXDXDXDXDXDXDXDXDXDXDXDXDXDXDXDXDXDXDXDXDXDX",
"DXDXDXDXDXDXDXDXDXDXDXDXDXDXDXDXDXDXDXDXDXDXDXDXDXDXDXDXDXDXDXDXDXDXDXDXDXDXDXDXDXDXDXDXDXDXDXDXDXDXDXDXDXDXDXDXDXDXDXDXDXDXDXDXDXDXDXDXDXDXDXDXDXDXDXDXDXDXDXDX"
};
